<mxfile host="app.diagrams.net" modified="2022-04-03T16:29:49.591Z" agent="5.0 (Windows)" etag="ACK2sDXdPd8TNJyqkIP8" version="17.4.0" type="github">
  <diagram id="vhpuTXRBzaWg03IPp8lz" name="Page-1">
    <mxGraphModel dx="2125" dy="1874" grid="1" gridSize="10" guides="1" tooltips="1" connect="1" arrows="1" fold="1" page="1" pageScale="1" pageWidth="827" pageHeight="1169" math="0" shadow="0">
      <root>
        <mxCell id="0" />
        <mxCell id="1" parent="0" />
        <mxCell id="ZNFF3Vfwh-cAoK5ZNlYT-26" style="edgeStyle=orthogonalEdgeStyle;rounded=0;orthogonalLoop=1;jettySize=auto;html=1;endArrow=none;endFill=0;dashed=1;exitX=1.014;exitY=-0.048;exitDx=0;exitDy=0;exitPerimeter=0;" parent="1" source="IzZOElxtcOKeKCQpAxpx-43" edge="1">
          <mxGeometry relative="1" as="geometry">
            <mxPoint x="310" y="5" as="targetPoint" />
            <mxPoint x="199" y="5" as="sourcePoint" />
            <Array as="points">
              <mxPoint x="310" y="11" />
            </Array>
          </mxGeometry>
        </mxCell>
        <mxCell id="we6FHVSDPOBdcgw_4QG6-87" style="edgeStyle=orthogonalEdgeStyle;rounded=0;orthogonalLoop=1;jettySize=auto;html=1;entryX=0.5;entryY=0;entryDx=0;entryDy=0;endArrow=none;endFill=0;exitX=0.534;exitY=1.087;exitDx=0;exitDy=0;exitPerimeter=0;" parent="1" source="IzZOElxtcOKeKCQpAxpx-64" edge="1">
          <mxGeometry relative="1" as="geometry">
            <mxPoint x="330" y="600" as="sourcePoint" />
            <mxPoint x="330" y="750" as="targetPoint" />
            <Array as="points">
              <mxPoint x="330" y="582" />
            </Array>
          </mxGeometry>
        </mxCell>
        <mxCell id="IzZOElxtcOKeKCQpAxpx-34" style="edgeStyle=orthogonalEdgeStyle;rounded=0;orthogonalLoop=1;jettySize=auto;html=1;entryX=0.473;entryY=1.058;entryDx=0;entryDy=0;entryPerimeter=0;endArrow=none;endFill=0;exitX=0.5;exitY=0;exitDx=0;exitDy=0;" edge="1" parent="1" source="IzZOElxtcOKeKCQpAxpx-89" target="IzZOElxtcOKeKCQpAxpx-11">
          <mxGeometry relative="1" as="geometry">
            <mxPoint x="76" y="360" as="sourcePoint" />
            <Array as="points">
              <mxPoint x="30" y="180" />
              <mxPoint x="406" y="180" />
            </Array>
          </mxGeometry>
        </mxCell>
        <mxCell id="IzZOElxtcOKeKCQpAxpx-26" style="edgeStyle=orthogonalEdgeStyle;rounded=0;orthogonalLoop=1;jettySize=auto;html=1;entryX=0.489;entryY=0.99;entryDx=0;entryDy=0;entryPerimeter=0;endArrow=none;endFill=0;exitX=0.5;exitY=0;exitDx=0;exitDy=0;" edge="1" parent="1" source="IzZOElxtcOKeKCQpAxpx-100" target="IzZOElxtcOKeKCQpAxpx-15">
          <mxGeometry relative="1" as="geometry">
            <mxPoint x="642.5" y="240" as="sourcePoint" />
          </mxGeometry>
        </mxCell>
        <mxCell id="we6FHVSDPOBdcgw_4QG6-50" value="Person" style="swimlane;fontStyle=1;childLayout=stackLayout;horizontal=1;startSize=30;horizontalStack=0;resizeParent=1;resizeParentMax=0;resizeLast=0;collapsible=1;marginBottom=0;gradientColor=none;rounded=1;dashed=1;" parent="1" vertex="1">
          <mxGeometry x="560" y="370" width="165" height="150" as="geometry" />
        </mxCell>
        <mxCell id="we6FHVSDPOBdcgw_4QG6-51" value="firstname" style="text;strokeColor=none;fillColor=none;align=left;verticalAlign=middle;spacingLeft=4;spacingRight=4;overflow=hidden;points=[[0,0.5],[1,0.5]];portConstraint=eastwest;rotatable=0;" parent="we6FHVSDPOBdcgw_4QG6-50" vertex="1">
          <mxGeometry y="30" width="165" height="30" as="geometry" />
        </mxCell>
        <mxCell id="we6FHVSDPOBdcgw_4QG6-52" value="lastname" style="text;strokeColor=none;fillColor=none;align=left;verticalAlign=middle;spacingLeft=4;spacingRight=4;overflow=hidden;points=[[0,0.5],[1,0.5]];portConstraint=eastwest;rotatable=0;" parent="we6FHVSDPOBdcgw_4QG6-50" vertex="1">
          <mxGeometry y="60" width="165" height="30" as="geometry" />
        </mxCell>
        <mxCell id="we6FHVSDPOBdcgw_4QG6-53" value="mail" style="text;strokeColor=none;fillColor=none;align=left;verticalAlign=middle;spacingLeft=4;spacingRight=4;overflow=hidden;points=[[0,0.5],[1,0.5]];portConstraint=eastwest;rotatable=0;" parent="we6FHVSDPOBdcgw_4QG6-50" vertex="1">
          <mxGeometry y="90" width="165" height="30" as="geometry" />
        </mxCell>
        <mxCell id="we6FHVSDPOBdcgw_4QG6-54" value="password" style="text;strokeColor=none;fillColor=none;align=left;verticalAlign=middle;spacingLeft=4;spacingRight=4;overflow=hidden;points=[[0,0.5],[1,0.5]];portConstraint=eastwest;rotatable=0;" parent="we6FHVSDPOBdcgw_4QG6-50" vertex="1">
          <mxGeometry y="120" width="165" height="30" as="geometry" />
        </mxCell>
        <mxCell id="we6FHVSDPOBdcgw_4QG6-85" style="edgeStyle=orthogonalEdgeStyle;rounded=0;orthogonalLoop=1;jettySize=auto;html=1;endArrow=none;endFill=0;entryX=0.5;entryY=0;entryDx=0;entryDy=0;dashed=1;exitX=1;exitY=0.115;exitDx=0;exitDy=0;exitPerimeter=0;" parent="1" source="IzZOElxtcOKeKCQpAxpx-97" target="IzZOElxtcOKeKCQpAxpx-105" edge="1">
          <mxGeometry relative="1" as="geometry">
            <mxPoint x="330" y="750" as="targetPoint" />
            <mxPoint x="183" y="675" as="sourcePoint" />
          </mxGeometry>
        </mxCell>
        <mxCell id="we6FHVSDPOBdcgw_4QG6-96" style="edgeStyle=orthogonalEdgeStyle;rounded=0;orthogonalLoop=1;jettySize=auto;html=1;entryX=0.992;entryY=0.042;entryDx=0;entryDy=0;entryPerimeter=0;endArrow=none;endFill=0;" parent="1" source="we6FHVSDPOBdcgw_4QG6-66" target="IzZOElxtcOKeKCQpAxpx-114" edge="1">
          <mxGeometry relative="1" as="geometry">
            <mxPoint x="456" y="838.6800000000003" as="targetPoint" />
          </mxGeometry>
        </mxCell>
        <mxCell id="ZNFF3Vfwh-cAoK5ZNlYT-18" style="edgeStyle=orthogonalEdgeStyle;rounded=0;orthogonalLoop=1;jettySize=auto;html=1;entryX=0.451;entryY=1.025;entryDx=0;entryDy=0;entryPerimeter=0;endArrow=block;endFill=0;" parent="1" source="we6FHVSDPOBdcgw_4QG6-66" target="we6FHVSDPOBdcgw_4QG6-54" edge="1">
          <mxGeometry relative="1" as="geometry" />
        </mxCell>
        <mxCell id="we6FHVSDPOBdcgw_4QG6-66" value="Client" style="swimlane;fontStyle=1;childLayout=stackLayout;horizontal=1;startSize=30;horizontalStack=0;resizeParent=1;resizeParentMax=0;resizeLast=0;collapsible=1;marginBottom=0;gradientColor=none;rounded=1;" parent="1" vertex="1">
          <mxGeometry x="500" y="630" width="140" height="60" as="geometry" />
        </mxCell>
        <mxCell id="ZNFF3Vfwh-cAoK5ZNlYT-28" style="edgeStyle=orthogonalEdgeStyle;rounded=0;orthogonalLoop=1;jettySize=auto;html=1;entryX=0.661;entryY=0.989;entryDx=0;entryDy=0;entryPerimeter=0;endArrow=block;endFill=0;" parent="1" source="we6FHVSDPOBdcgw_4QG6-72" target="we6FHVSDPOBdcgw_4QG6-54" edge="1">
          <mxGeometry relative="1" as="geometry" />
        </mxCell>
        <mxCell id="we6FHVSDPOBdcgw_4QG6-72" value="Admin" style="swimlane;fontStyle=1;childLayout=stackLayout;horizontal=1;startSize=30;horizontalStack=0;resizeParent=1;resizeParentMax=0;resizeLast=0;collapsible=1;marginBottom=0;gradientColor=none;rounded=1;" parent="1" vertex="1">
          <mxGeometry x="660" y="630" width="140" height="60" as="geometry" />
        </mxCell>
        <mxCell id="we6FHVSDPOBdcgw_4QG6-73" value="Rights" style="text;strokeColor=none;fillColor=none;align=left;verticalAlign=middle;spacingLeft=4;spacingRight=4;overflow=hidden;points=[[0,0.5],[1,0.5]];portConstraint=eastwest;rotatable=0;" parent="we6FHVSDPOBdcgw_4QG6-72" vertex="1">
          <mxGeometry y="30" width="140" height="30" as="geometry" />
        </mxCell>
        <mxCell id="we6FHVSDPOBdcgw_4QG6-101" style="edgeStyle=orthogonalEdgeStyle;rounded=0;orthogonalLoop=1;jettySize=auto;html=1;entryX=0;entryY=0.5;entryDx=0;entryDy=0;endArrow=none;endFill=0;exitX=1;exitY=0.5;exitDx=0;exitDy=0;" parent="1" source="IzZOElxtcOKeKCQpAxpx-68" target="IzZOElxtcOKeKCQpAxpx-102" edge="1">
          <mxGeometry relative="1" as="geometry">
            <mxPoint x="430" y="435" as="sourcePoint" />
            <mxPoint x="560" y="285" as="targetPoint" />
          </mxGeometry>
        </mxCell>
        <mxCell id="ZNFF3Vfwh-cAoK5ZNlYT-1" value="1" style="text;html=1;strokeColor=none;fillColor=none;align=center;verticalAlign=middle;whiteSpace=wrap;rounded=0;" parent="1" vertex="1">
          <mxGeometry x="187" y="-18" width="20" height="26" as="geometry" />
        </mxCell>
        <mxCell id="ZNFF3Vfwh-cAoK5ZNlYT-3" value="*" style="text;html=1;strokeColor=none;fillColor=none;align=center;verticalAlign=middle;whiteSpace=wrap;rounded=0;" parent="1" vertex="1">
          <mxGeometry x="310" y="31" width="20" height="30" as="geometry" />
        </mxCell>
        <mxCell id="ZNFF3Vfwh-cAoK5ZNlYT-4" value="*" style="text;html=1;strokeColor=none;fillColor=none;align=center;verticalAlign=middle;whiteSpace=wrap;rounded=0;" parent="1" vertex="1">
          <mxGeometry x="410" y="-30" width="20" height="20" as="geometry" />
        </mxCell>
        <mxCell id="ZNFF3Vfwh-cAoK5ZNlYT-5" value="1..*" style="text;html=1;strokeColor=none;fillColor=none;align=center;verticalAlign=middle;whiteSpace=wrap;rounded=0;" parent="1" vertex="1">
          <mxGeometry x="380" y="107" width="20" height="20" as="geometry" />
        </mxCell>
        <mxCell id="ZNFF3Vfwh-cAoK5ZNlYT-7" value="1" style="text;html=1;strokeColor=none;fillColor=none;align=center;verticalAlign=middle;whiteSpace=wrap;rounded=0;" parent="1" vertex="1">
          <mxGeometry x="30" y="320" width="20" height="20" as="geometry" />
        </mxCell>
        <mxCell id="ZNFF3Vfwh-cAoK5ZNlYT-8" value="1" style="text;html=1;strokeColor=none;fillColor=none;align=center;verticalAlign=middle;whiteSpace=wrap;rounded=0;" parent="1" vertex="1">
          <mxGeometry x="103" y="380" width="20" height="20" as="geometry" />
        </mxCell>
        <mxCell id="ZNFF3Vfwh-cAoK5ZNlYT-9" value="1..*" style="text;html=1;strokeColor=none;fillColor=none;align=center;verticalAlign=middle;whiteSpace=wrap;rounded=0;" parent="1" vertex="1">
          <mxGeometry x="193" y="420" width="20" height="20" as="geometry" />
        </mxCell>
        <mxCell id="ZNFF3Vfwh-cAoK5ZNlYT-10" value="1..*" style="text;html=1;strokeColor=none;fillColor=none;align=center;verticalAlign=middle;whiteSpace=wrap;rounded=0;" parent="1" vertex="1">
          <mxGeometry x="438" y="414" width="20" height="20" as="geometry" />
        </mxCell>
        <mxCell id="ZNFF3Vfwh-cAoK5ZNlYT-11" value="1" style="text;html=1;strokeColor=none;fillColor=none;align=center;verticalAlign=middle;whiteSpace=wrap;rounded=0;" parent="1" vertex="1">
          <mxGeometry x="540" y="275" width="20" height="30" as="geometry" />
        </mxCell>
        <mxCell id="ZNFF3Vfwh-cAoK5ZNlYT-12" value="1" style="text;html=1;strokeColor=none;fillColor=none;align=center;verticalAlign=middle;whiteSpace=wrap;rounded=0;" parent="1" vertex="1">
          <mxGeometry x="620" y="210" width="20" height="30" as="geometry" />
        </mxCell>
        <mxCell id="ZNFF3Vfwh-cAoK5ZNlYT-13" value="1..*" style="text;html=1;strokeColor=none;fillColor=none;align=center;verticalAlign=middle;whiteSpace=wrap;rounded=0;" parent="1" vertex="1">
          <mxGeometry x="620" y="153" width="20" height="20" as="geometry" />
        </mxCell>
        <mxCell id="ZNFF3Vfwh-cAoK5ZNlYT-14" value="1" style="text;html=1;strokeColor=none;fillColor=none;align=center;verticalAlign=middle;whiteSpace=wrap;rounded=0;" parent="1" vertex="1">
          <mxGeometry x="300" y="585" width="20" height="30" as="geometry" />
        </mxCell>
        <mxCell id="ZNFF3Vfwh-cAoK5ZNlYT-15" value="1" style="text;html=1;strokeColor=none;fillColor=none;align=center;verticalAlign=middle;whiteSpace=wrap;rounded=0;" parent="1" vertex="1">
          <mxGeometry x="310" y="720" width="20" height="30" as="geometry" />
        </mxCell>
        <mxCell id="ZNFF3Vfwh-cAoK5ZNlYT-16" value="*" style="text;html=1;strokeColor=none;fillColor=none;align=center;verticalAlign=middle;whiteSpace=wrap;rounded=0;" parent="1" vertex="1">
          <mxGeometry x="415" y="810" width="20" height="30" as="geometry" />
        </mxCell>
        <mxCell id="ZNFF3Vfwh-cAoK5ZNlYT-17" value="1" style="text;html=1;strokeColor=none;fillColor=none;align=center;verticalAlign=middle;whiteSpace=wrap;rounded=0;" parent="1" vertex="1">
          <mxGeometry x="550" y="690" width="20" height="30" as="geometry" />
        </mxCell>
        <mxCell id="IzZOElxtcOKeKCQpAxpx-8" value="Category" style="swimlane;fontStyle=1;align=center;verticalAlign=top;childLayout=stackLayout;horizontal=1;startSize=26;horizontalStack=0;resizeParent=1;resizeParentMax=0;resizeLast=0;collapsible=1;marginBottom=0;" vertex="1" parent="1">
          <mxGeometry x="330" y="-10" width="160" height="112" as="geometry" />
        </mxCell>
        <mxCell id="IzZOElxtcOKeKCQpAxpx-9" value="# idCat: Integer" style="text;strokeColor=none;fillColor=none;align=left;verticalAlign=top;spacingLeft=4;spacingRight=4;overflow=hidden;rotatable=0;points=[[0,0.5],[1,0.5]];portConstraint=eastwest;" vertex="1" parent="IzZOElxtcOKeKCQpAxpx-8">
          <mxGeometry y="26" width="160" height="26" as="geometry" />
        </mxCell>
        <mxCell id="IzZOElxtcOKeKCQpAxpx-29" value="+ name : String" style="text;strokeColor=none;fillColor=none;align=left;verticalAlign=top;spacingLeft=4;spacingRight=4;overflow=hidden;rotatable=0;points=[[0,0.5],[1,0.5]];portConstraint=eastwest;" vertex="1" parent="IzZOElxtcOKeKCQpAxpx-8">
          <mxGeometry y="52" width="160" height="26" as="geometry" />
        </mxCell>
        <mxCell id="IzZOElxtcOKeKCQpAxpx-10" value="" style="line;strokeWidth=1;fillColor=none;align=left;verticalAlign=middle;spacingTop=-1;spacingLeft=3;spacingRight=3;rotatable=0;labelPosition=right;points=[];portConstraint=eastwest;" vertex="1" parent="IzZOElxtcOKeKCQpAxpx-8">
          <mxGeometry y="78" width="160" height="8" as="geometry" />
        </mxCell>
        <mxCell id="IzZOElxtcOKeKCQpAxpx-11" value="+ method(type): type" style="text;strokeColor=none;fillColor=none;align=left;verticalAlign=top;spacingLeft=4;spacingRight=4;overflow=hidden;rotatable=0;points=[[0,0.5],[1,0.5]];portConstraint=eastwest;" vertex="1" parent="IzZOElxtcOKeKCQpAxpx-8">
          <mxGeometry y="86" width="160" height="26" as="geometry" />
        </mxCell>
        <mxCell id="IzZOElxtcOKeKCQpAxpx-28" style="edgeStyle=orthogonalEdgeStyle;rounded=0;orthogonalLoop=1;jettySize=auto;html=1;entryX=0;entryY=0.5;entryDx=0;entryDy=0;endArrow=none;endFill=0;" edge="1" parent="IzZOElxtcOKeKCQpAxpx-8" source="IzZOElxtcOKeKCQpAxpx-8" target="IzZOElxtcOKeKCQpAxpx-9">
          <mxGeometry relative="1" as="geometry" />
        </mxCell>
        <mxCell id="IzZOElxtcOKeKCQpAxpx-12" value="Promotionnal operation" style="swimlane;fontStyle=1;align=center;verticalAlign=top;childLayout=stackLayout;horizontal=1;startSize=26;horizontalStack=0;resizeParent=1;resizeParentMax=0;resizeLast=0;collapsible=1;marginBottom=0;" vertex="1" parent="1">
          <mxGeometry x="565" y="-29" width="160" height="179" as="geometry" />
        </mxCell>
        <mxCell id="IzZOElxtcOKeKCQpAxpx-19" value="# idOpe : Integer" style="text;strokeColor=none;fillColor=none;align=left;verticalAlign=middle;spacingLeft=4;spacingRight=4;overflow=hidden;points=[[0,0.5],[1,0.5]];portConstraint=eastwest;rotatable=0;" vertex="1" parent="IzZOElxtcOKeKCQpAxpx-12">
          <mxGeometry y="26" width="160" height="30" as="geometry" />
        </mxCell>
        <mxCell id="IzZOElxtcOKeKCQpAxpx-20" value="+ name : String" style="text;strokeColor=none;fillColor=none;align=left;verticalAlign=middle;spacingLeft=4;spacingRight=4;overflow=hidden;points=[[0,0.5],[1,0.5]];portConstraint=eastwest;rotatable=0;" vertex="1" parent="IzZOElxtcOKeKCQpAxpx-12">
          <mxGeometry y="56" width="160" height="30" as="geometry" />
        </mxCell>
        <mxCell id="IzZOElxtcOKeKCQpAxpx-22" value="+ endDate : Datetime" style="text;strokeColor=none;fillColor=none;align=left;verticalAlign=middle;spacingLeft=4;spacingRight=4;overflow=hidden;points=[[0,0.5],[1,0.5]];portConstraint=eastwest;rotatable=0;" vertex="1" parent="IzZOElxtcOKeKCQpAxpx-12">
          <mxGeometry y="86" width="160" height="29" as="geometry" />
        </mxCell>
        <mxCell id="IzZOElxtcOKeKCQpAxpx-21" value="+ startDate : Datetime" style="text;strokeColor=none;fillColor=none;align=left;verticalAlign=middle;spacingLeft=4;spacingRight=4;overflow=hidden;points=[[0,0.5],[1,0.5]];portConstraint=eastwest;rotatable=0;" vertex="1" parent="IzZOElxtcOKeKCQpAxpx-12">
          <mxGeometry y="115" width="160" height="30" as="geometry" />
        </mxCell>
        <mxCell id="IzZOElxtcOKeKCQpAxpx-14" value="" style="line;strokeWidth=1;fillColor=none;align=left;verticalAlign=middle;spacingTop=-1;spacingLeft=3;spacingRight=3;rotatable=0;labelPosition=right;points=[];portConstraint=eastwest;" vertex="1" parent="IzZOElxtcOKeKCQpAxpx-12">
          <mxGeometry y="145" width="160" height="8" as="geometry" />
        </mxCell>
        <mxCell id="IzZOElxtcOKeKCQpAxpx-15" value="+ method(type): type" style="text;strokeColor=none;fillColor=none;align=left;verticalAlign=top;spacingLeft=4;spacingRight=4;overflow=hidden;rotatable=0;points=[[0,0.5],[1,0.5]];portConstraint=eastwest;" vertex="1" parent="IzZOElxtcOKeKCQpAxpx-12">
          <mxGeometry y="153" width="160" height="26" as="geometry" />
        </mxCell>
        <mxCell id="IzZOElxtcOKeKCQpAxpx-41" value="Category / subcategory" style="swimlane;fontStyle=1;align=center;verticalAlign=top;childLayout=stackLayout;horizontal=1;startSize=26;horizontalStack=0;resizeParent=1;resizeParentMax=0;resizeLast=0;collapsible=1;marginBottom=0;" vertex="1" parent="1">
          <mxGeometry x="23" y="-40" width="160" height="112" as="geometry" />
        </mxCell>
        <mxCell id="IzZOElxtcOKeKCQpAxpx-42" value="+ idCat: Integer" style="text;strokeColor=none;fillColor=none;align=left;verticalAlign=top;spacingLeft=4;spacingRight=4;overflow=hidden;rotatable=0;points=[[0,0.5],[1,0.5]];portConstraint=eastwest;" vertex="1" parent="IzZOElxtcOKeKCQpAxpx-41">
          <mxGeometry y="26" width="160" height="26" as="geometry" />
        </mxCell>
        <mxCell id="IzZOElxtcOKeKCQpAxpx-43" value="+ idSubcateg: String" style="text;strokeColor=none;fillColor=none;align=left;verticalAlign=top;spacingLeft=4;spacingRight=4;overflow=hidden;rotatable=0;points=[[0,0.5],[1,0.5]];portConstraint=eastwest;" vertex="1" parent="IzZOElxtcOKeKCQpAxpx-41">
          <mxGeometry y="52" width="160" height="26" as="geometry" />
        </mxCell>
        <mxCell id="IzZOElxtcOKeKCQpAxpx-44" value="" style="line;strokeWidth=1;fillColor=none;align=left;verticalAlign=middle;spacingTop=-1;spacingLeft=3;spacingRight=3;rotatable=0;labelPosition=right;points=[];portConstraint=eastwest;" vertex="1" parent="IzZOElxtcOKeKCQpAxpx-41">
          <mxGeometry y="78" width="160" height="8" as="geometry" />
        </mxCell>
        <mxCell id="IzZOElxtcOKeKCQpAxpx-45" value="+ method(type): type" style="text;strokeColor=none;fillColor=none;align=left;verticalAlign=top;spacingLeft=4;spacingRight=4;overflow=hidden;rotatable=0;points=[[0,0.5],[1,0.5]];portConstraint=eastwest;" vertex="1" parent="IzZOElxtcOKeKCQpAxpx-41">
          <mxGeometry y="86" width="160" height="26" as="geometry" />
        </mxCell>
        <mxCell id="IzZOElxtcOKeKCQpAxpx-58" value="Product" style="swimlane;fontStyle=1;align=center;verticalAlign=top;childLayout=stackLayout;horizontal=1;startSize=26;horizontalStack=0;resizeParent=1;resizeParentMax=0;resizeLast=0;collapsible=1;marginBottom=0;" vertex="1" parent="1">
          <mxGeometry x="215" y="250" width="220" height="330" as="geometry" />
        </mxCell>
        <mxCell id="IzZOElxtcOKeKCQpAxpx-65" value="#id : Integer" style="text;strokeColor=none;fillColor=none;align=left;verticalAlign=middle;spacingLeft=4;spacingRight=4;overflow=hidden;points=[[0,0.5],[1,0.5]];portConstraint=eastwest;rotatable=0;" vertex="1" parent="IzZOElxtcOKeKCQpAxpx-58">
          <mxGeometry y="26" width="220" height="30" as="geometry" />
        </mxCell>
        <mxCell id="IzZOElxtcOKeKCQpAxpx-73" value="+ name : String" style="text;strokeColor=none;fillColor=none;align=left;verticalAlign=middle;spacingLeft=4;spacingRight=4;overflow=hidden;points=[[0,0.5],[1,0.5]];portConstraint=eastwest;rotatable=0;spacing=1;" vertex="1" parent="IzZOElxtcOKeKCQpAxpx-58">
          <mxGeometry y="56" width="220" height="30" as="geometry" />
        </mxCell>
        <mxCell id="IzZOElxtcOKeKCQpAxpx-66" value="+ Category_subcategory : " style="text;strokeColor=none;fillColor=none;align=left;verticalAlign=middle;spacingLeft=4;spacingRight=4;overflow=hidden;points=[[0,0.5],[1,0.5]];portConstraint=eastwest;rotatable=0;" vertex="1" parent="IzZOElxtcOKeKCQpAxpx-58">
          <mxGeometry y="86" width="220" height="30" as="geometry" />
        </mxCell>
        <mxCell id="IzZOElxtcOKeKCQpAxpx-67" value="+ originPrice: Double" style="text;strokeColor=none;fillColor=none;align=left;verticalAlign=middle;spacingLeft=4;spacingRight=4;overflow=hidden;points=[[0,0.5],[1,0.5]];portConstraint=eastwest;rotatable=0;" vertex="1" parent="IzZOElxtcOKeKCQpAxpx-58">
          <mxGeometry y="116" width="220" height="30" as="geometry" />
        </mxCell>
        <mxCell id="IzZOElxtcOKeKCQpAxpx-68" value="+ discountState: String" style="text;strokeColor=none;fillColor=none;align=left;verticalAlign=middle;spacingLeft=4;spacingRight=4;overflow=hidden;points=[[0,0.5],[1,0.5]];portConstraint=eastwest;rotatable=0;" vertex="1" parent="IzZOElxtcOKeKCQpAxpx-58">
          <mxGeometry y="146" width="220" height="30" as="geometry" />
        </mxCell>
        <mxCell id="IzZOElxtcOKeKCQpAxpx-69" value="+ discountRate : Integer" style="text;strokeColor=none;fillColor=none;align=left;verticalAlign=middle;spacingLeft=4;spacingRight=4;overflow=hidden;points=[[0,0.5],[1,0.5]];portConstraint=eastwest;rotatable=0;" vertex="1" parent="IzZOElxtcOKeKCQpAxpx-58">
          <mxGeometry y="176" width="220" height="30" as="geometry" />
        </mxCell>
        <mxCell id="IzZOElxtcOKeKCQpAxpx-70" value="+ stock: Integer" style="text;strokeColor=none;fillColor=none;align=left;verticalAlign=middle;spacingLeft=4;spacingRight=4;overflow=hidden;points=[[0,0.5],[1,0.5]];portConstraint=eastwest;rotatable=0;" vertex="1" parent="IzZOElxtcOKeKCQpAxpx-58">
          <mxGeometry y="206" width="220" height="30" as="geometry" />
        </mxCell>
        <mxCell id="IzZOElxtcOKeKCQpAxpx-71" value="+ alertLevel: String" style="text;strokeColor=none;fillColor=none;align=left;verticalAlign=middle;spacingLeft=4;spacingRight=4;overflow=hidden;points=[[0,0.5],[1,0.5]];portConstraint=eastwest;rotatable=0;" vertex="1" parent="IzZOElxtcOKeKCQpAxpx-58">
          <mxGeometry y="236" width="220" height="30" as="geometry" />
        </mxCell>
        <mxCell id="IzZOElxtcOKeKCQpAxpx-72" value="+ Description: String" style="text;strokeColor=none;fillColor=none;align=left;verticalAlign=middle;spacingLeft=4;spacingRight=4;overflow=hidden;points=[[0,0.5],[1,0.5]];portConstraint=eastwest;rotatable=0;" vertex="1" parent="IzZOElxtcOKeKCQpAxpx-58">
          <mxGeometry y="266" width="220" height="30" as="geometry" />
        </mxCell>
        <mxCell id="IzZOElxtcOKeKCQpAxpx-63" value="" style="line;strokeWidth=1;fillColor=none;align=left;verticalAlign=middle;spacingTop=-1;spacingLeft=3;spacingRight=3;rotatable=0;labelPosition=right;points=[];portConstraint=eastwest;" vertex="1" parent="IzZOElxtcOKeKCQpAxpx-58">
          <mxGeometry y="296" width="220" height="8" as="geometry" />
        </mxCell>
        <mxCell id="IzZOElxtcOKeKCQpAxpx-64" value="+ method(type): type" style="text;strokeColor=none;fillColor=none;align=left;verticalAlign=top;spacingLeft=4;spacingRight=4;overflow=hidden;rotatable=0;points=[[0,0.5],[1,0.5]];portConstraint=eastwest;" vertex="1" parent="IzZOElxtcOKeKCQpAxpx-58">
          <mxGeometry y="304" width="220" height="26" as="geometry" />
        </mxCell>
        <mxCell id="IzZOElxtcOKeKCQpAxpx-74" style="edgeStyle=orthogonalEdgeStyle;rounded=0;orthogonalLoop=1;jettySize=auto;html=1;entryX=0;entryY=0.5;entryDx=0;entryDy=0;endArrow=none;endFill=0;exitX=1;exitY=0.5;exitDx=0;exitDy=0;" edge="1" parent="1" source="IzZOElxtcOKeKCQpAxpx-91" target="IzZOElxtcOKeKCQpAxpx-68">
          <mxGeometry relative="1" as="geometry">
            <mxPoint x="146" y="405" as="sourcePoint" />
            <Array as="points">
              <mxPoint x="146" y="405" />
              <mxPoint x="215" y="405" />
            </Array>
          </mxGeometry>
        </mxCell>
        <mxCell id="IzZOElxtcOKeKCQpAxpx-89" value="Category / product" style="swimlane;fontStyle=1;align=center;verticalAlign=top;childLayout=stackLayout;horizontal=1;startSize=26;horizontalStack=0;resizeParent=1;resizeParentMax=0;resizeLast=0;collapsible=1;marginBottom=0;" vertex="1" parent="1">
          <mxGeometry x="-40" y="340" width="140" height="112" as="geometry" />
        </mxCell>
        <mxCell id="IzZOElxtcOKeKCQpAxpx-90" value="+ idCat: Integer" style="text;strokeColor=none;fillColor=none;align=left;verticalAlign=top;spacingLeft=4;spacingRight=4;overflow=hidden;rotatable=0;points=[[0,0.5],[1,0.5]];portConstraint=eastwest;" vertex="1" parent="IzZOElxtcOKeKCQpAxpx-89">
          <mxGeometry y="26" width="140" height="26" as="geometry" />
        </mxCell>
        <mxCell id="IzZOElxtcOKeKCQpAxpx-91" value="+ idProd: Integer" style="text;strokeColor=none;fillColor=none;align=left;verticalAlign=top;spacingLeft=4;spacingRight=4;overflow=hidden;rotatable=0;points=[[0,0.5],[1,0.5]];portConstraint=eastwest;" vertex="1" parent="IzZOElxtcOKeKCQpAxpx-89">
          <mxGeometry y="52" width="140" height="26" as="geometry" />
        </mxCell>
        <mxCell id="IzZOElxtcOKeKCQpAxpx-92" value="" style="line;strokeWidth=1;fillColor=none;align=left;verticalAlign=middle;spacingTop=-1;spacingLeft=3;spacingRight=3;rotatable=0;labelPosition=right;points=[];portConstraint=eastwest;" vertex="1" parent="IzZOElxtcOKeKCQpAxpx-89">
          <mxGeometry y="78" width="140" height="8" as="geometry" />
        </mxCell>
        <mxCell id="IzZOElxtcOKeKCQpAxpx-93" value="+ method(type): type" style="text;strokeColor=none;fillColor=none;align=left;verticalAlign=top;spacingLeft=4;spacingRight=4;overflow=hidden;rotatable=0;points=[[0,0.5],[1,0.5]];portConstraint=eastwest;" vertex="1" parent="IzZOElxtcOKeKCQpAxpx-89">
          <mxGeometry y="86" width="140" height="26" as="geometry" />
        </mxCell>
        <mxCell id="IzZOElxtcOKeKCQpAxpx-95" value="Cart" style="swimlane;fontStyle=1;align=center;verticalAlign=top;childLayout=stackLayout;horizontal=1;startSize=26;horizontalStack=0;resizeParent=1;resizeParentMax=0;resizeLast=0;collapsible=1;marginBottom=0;" vertex="1" parent="1">
          <mxGeometry x="30" y="620" width="140" height="112" as="geometry" />
        </mxCell>
        <mxCell id="IzZOElxtcOKeKCQpAxpx-96" value="+ products[ ]: Integer" style="text;strokeColor=none;fillColor=none;align=left;verticalAlign=top;spacingLeft=4;spacingRight=4;overflow=hidden;rotatable=0;points=[[0,0.5],[1,0.5]];portConstraint=eastwest;" vertex="1" parent="IzZOElxtcOKeKCQpAxpx-95">
          <mxGeometry y="26" width="140" height="26" as="geometry" />
        </mxCell>
        <mxCell id="IzZOElxtcOKeKCQpAxpx-97" value="+ totalPrice: Double" style="text;strokeColor=none;fillColor=none;align=left;verticalAlign=top;spacingLeft=4;spacingRight=4;overflow=hidden;rotatable=0;points=[[0,0.5],[1,0.5]];portConstraint=eastwest;" vertex="1" parent="IzZOElxtcOKeKCQpAxpx-95">
          <mxGeometry y="52" width="140" height="26" as="geometry" />
        </mxCell>
        <mxCell id="IzZOElxtcOKeKCQpAxpx-98" value="" style="line;strokeWidth=1;fillColor=none;align=left;verticalAlign=middle;spacingTop=-1;spacingLeft=3;spacingRight=3;rotatable=0;labelPosition=right;points=[];portConstraint=eastwest;" vertex="1" parent="IzZOElxtcOKeKCQpAxpx-95">
          <mxGeometry y="78" width="140" height="8" as="geometry" />
        </mxCell>
        <mxCell id="IzZOElxtcOKeKCQpAxpx-99" value="+ method(type): type" style="text;strokeColor=none;fillColor=none;align=left;verticalAlign=top;spacingLeft=4;spacingRight=4;overflow=hidden;rotatable=0;points=[[0,0.5],[1,0.5]];portConstraint=eastwest;" vertex="1" parent="IzZOElxtcOKeKCQpAxpx-95">
          <mxGeometry y="86" width="140" height="26" as="geometry" />
        </mxCell>
        <mxCell id="IzZOElxtcOKeKCQpAxpx-100" value="Promotional op / product" style="swimlane;fontStyle=1;align=center;verticalAlign=top;childLayout=stackLayout;horizontal=1;startSize=26;horizontalStack=0;resizeParent=1;resizeParentMax=0;resizeLast=0;collapsible=1;marginBottom=0;" vertex="1" parent="1">
          <mxGeometry x="562.5" y="240" width="160" height="112" as="geometry" />
        </mxCell>
        <mxCell id="IzZOElxtcOKeKCQpAxpx-101" value="# idOpe: Integer" style="text;strokeColor=none;fillColor=none;align=left;verticalAlign=top;spacingLeft=4;spacingRight=4;overflow=hidden;rotatable=0;points=[[0,0.5],[1,0.5]];portConstraint=eastwest;" vertex="1" parent="IzZOElxtcOKeKCQpAxpx-100">
          <mxGeometry y="26" width="160" height="26" as="geometry" />
        </mxCell>
        <mxCell id="IzZOElxtcOKeKCQpAxpx-102" value="+ idProd: Integer" style="text;strokeColor=none;fillColor=none;align=left;verticalAlign=top;spacingLeft=4;spacingRight=4;overflow=hidden;rotatable=0;points=[[0,0.5],[1,0.5]];portConstraint=eastwest;" vertex="1" parent="IzZOElxtcOKeKCQpAxpx-100">
          <mxGeometry y="52" width="160" height="26" as="geometry" />
        </mxCell>
        <mxCell id="IzZOElxtcOKeKCQpAxpx-103" value="" style="line;strokeWidth=1;fillColor=none;align=left;verticalAlign=middle;spacingTop=-1;spacingLeft=3;spacingRight=3;rotatable=0;labelPosition=right;points=[];portConstraint=eastwest;" vertex="1" parent="IzZOElxtcOKeKCQpAxpx-100">
          <mxGeometry y="78" width="160" height="8" as="geometry" />
        </mxCell>
        <mxCell id="IzZOElxtcOKeKCQpAxpx-104" value="+ method(type): type" style="text;strokeColor=none;fillColor=none;align=left;verticalAlign=top;spacingLeft=4;spacingRight=4;overflow=hidden;rotatable=0;points=[[0,0.5],[1,0.5]];portConstraint=eastwest;" vertex="1" parent="IzZOElxtcOKeKCQpAxpx-100">
          <mxGeometry y="86" width="160" height="26" as="geometry" />
        </mxCell>
        <mxCell id="IzZOElxtcOKeKCQpAxpx-105" value="Order" style="swimlane;fontStyle=1;align=center;verticalAlign=top;childLayout=stackLayout;horizontal=1;startSize=26;horizontalStack=0;resizeParent=1;resizeParentMax=0;resizeLast=0;collapsible=1;marginBottom=0;" vertex="1" parent="1">
          <mxGeometry x="250" y="750" width="160" height="210" as="geometry" />
        </mxCell>
        <mxCell id="IzZOElxtcOKeKCQpAxpx-112" value="+ products[]: String" style="text;strokeColor=none;fillColor=none;align=left;verticalAlign=middle;spacingLeft=4;spacingRight=4;overflow=hidden;points=[[0,0.5],[1,0.5]];portConstraint=eastwest;rotatable=0;" vertex="1" parent="IzZOElxtcOKeKCQpAxpx-105">
          <mxGeometry y="26" width="160" height="30" as="geometry" />
        </mxCell>
        <mxCell id="IzZOElxtcOKeKCQpAxpx-113" value="+ totalPrice: Double" style="text;strokeColor=none;fillColor=none;align=left;verticalAlign=middle;spacingLeft=4;spacingRight=4;overflow=hidden;points=[[0,0.5],[1,0.5]];portConstraint=eastwest;rotatable=0;" vertex="1" parent="IzZOElxtcOKeKCQpAxpx-105">
          <mxGeometry y="56" width="160" height="30" as="geometry" />
        </mxCell>
        <mxCell id="IzZOElxtcOKeKCQpAxpx-114" value="+ state : String" style="text;strokeColor=none;fillColor=none;align=left;verticalAlign=middle;spacingLeft=4;spacingRight=4;overflow=hidden;points=[[0,0.5],[1,0.5]];portConstraint=eastwest;rotatable=0;" vertex="1" parent="IzZOElxtcOKeKCQpAxpx-105">
          <mxGeometry y="86" width="160" height="30" as="geometry" />
        </mxCell>
        <mxCell id="IzZOElxtcOKeKCQpAxpx-115" value="+ couponState: String" style="text;strokeColor=none;fillColor=none;align=left;verticalAlign=middle;spacingLeft=4;spacingRight=4;overflow=hidden;points=[[0,0.5],[1,0.5]];portConstraint=eastwest;rotatable=0;" vertex="1" parent="IzZOElxtcOKeKCQpAxpx-105">
          <mxGeometry y="116" width="160" height="30" as="geometry" />
        </mxCell>
        <mxCell id="IzZOElxtcOKeKCQpAxpx-116" value="+ couponAmount: Double" style="text;strokeColor=none;fillColor=none;align=left;verticalAlign=middle;spacingLeft=4;spacingRight=4;overflow=hidden;points=[[0,0.5],[1,0.5]];portConstraint=eastwest;rotatable=0;" vertex="1" parent="IzZOElxtcOKeKCQpAxpx-105">
          <mxGeometry y="146" width="160" height="30" as="geometry" />
        </mxCell>
        <mxCell id="IzZOElxtcOKeKCQpAxpx-110" value="" style="line;strokeWidth=1;fillColor=none;align=left;verticalAlign=middle;spacingTop=-1;spacingLeft=3;spacingRight=3;rotatable=0;labelPosition=right;points=[];portConstraint=eastwest;" vertex="1" parent="IzZOElxtcOKeKCQpAxpx-105">
          <mxGeometry y="176" width="160" height="8" as="geometry" />
        </mxCell>
        <mxCell id="IzZOElxtcOKeKCQpAxpx-111" value="+ method(type): type" style="text;strokeColor=none;fillColor=none;align=left;verticalAlign=top;spacingLeft=4;spacingRight=4;overflow=hidden;rotatable=0;points=[[0,0.5],[1,0.5]];portConstraint=eastwest;" vertex="1" parent="IzZOElxtcOKeKCQpAxpx-105">
          <mxGeometry y="184" width="160" height="26" as="geometry" />
        </mxCell>
      </root>
    </mxGraphModel>
  </diagram>
</mxfile>
